<svg width="100" height="100" viewBox="0 0 100 100" fill="none" xmlns="http://www.w3.org/2000/svg">
<circle cx="50" cy="50" r="50" fill="#F1F1F1"/>
<path fill-rule="evenodd" clip-rule="evenodd" d="M74.9042 75.7729C74.4244 74.4173 73.8486 72.3838 73.2728 70.3504C72.505 67.5423 71.5453 64.5405 70.8735 62.7007C69.8179 59.6022 67.5146 57.7624 64.4436 56.9877C63.196 56.6972 61.9484 56.4067 60.7968 56.1162C60.125 55.9226 59.4532 55.8257 58.7814 55.6321C58.4935 55.6321 58.3016 55.6321 58.0136 55.5353C57.3419 55.5353 56.6701 55.3416 56.2862 54.9543C55.9023 54.5669 56.0943 52.6303 56.0943 52.243C56.0943 51.662 56.2862 51.3715 56.766 50.9842C57.9177 50.5 58.8774 49.6286 59.3572 48.4666C60.029 47.111 60.8927 45.1743 60.9887 43.7219C60.9887 43.3346 61.2766 43.3346 61.4685 43.3346H61.5645C63.4839 43.3346 64.9234 41.8821 64.9234 40.0423C64.9234 38.2025 63.4839 36.8469 61.5645 36.8469C61.0847 36.8469 60.9887 36.6532 60.9887 36.2659C60.9887 33.8451 60.9887 31.3275 60.9887 28.9067V26.5828C60.9887 25.4208 60.9887 25.2272 59.7411 24.8398C53.1192 22.4191 46.4973 22.4191 39.7795 24.743C38.3399 25.324 38.3399 25.324 38.3399 26.7765V29.1004C38.3399 31.5212 38.3399 33.8451 38.3399 36.2659C38.3399 36.75 38.3399 36.9437 37.7641 36.9437C36.9004 36.9437 36.0367 37.1374 35.4609 37.8152C34.5012 38.8803 34.2133 40.0423 34.6931 41.3011C35.173 42.4631 36.4206 43.3346 37.6682 43.3346C38.052 43.3346 38.3399 43.625 38.3399 44.0124C38.5319 46.2395 39.4916 48.1761 41.0271 49.8222C41.0271 49.8222 41.0271 49.8222 41.123 49.9191C41.8908 50.5969 42.7545 51.1779 43.6182 51.5652C44.0021 52.3398 44.0021 54.2765 44.0021 54.3733C44.0981 54.9543 43.8102 55.1479 43.3303 55.2448C40.8351 55.8257 38.3399 56.3099 35.7488 56.8909C32.3898 57.6655 30.1825 59.699 29.0309 62.9912C28.3591 64.831 27.3994 67.9296 26.5357 70.8346C25.9599 72.7712 25.3841 74.611 25.0002 75.8698C24.6163 76.9349 25.0002 77.7096 25.768 78C26.1518 78.0969 26.4397 78.0969 26.7277 78C26.8236 78 27.0156 78 27.1115 78H72.8889C73.0808 78 73.3687 78 73.5607 77.8064C73.6566 77.8064 73.7526 77.8064 73.9445 77.8064C74.7123 77.5159 75.0962 76.7412 74.8083 75.8698L74.9042 75.7729ZM61.0847 39.7518C61.0847 38.7835 61.0847 38.6867 62.2363 38.9772C63.004 39.655 62.9081 40.5265 62.0444 40.8169C61.2766 41.1074 61.0847 40.9138 61.0847 40.1391V39.655V39.7518ZM37.8601 40.9138C37.0923 40.9138 36.6125 40.5265 36.6125 39.9455C36.6125 39.3645 37.0923 38.8803 37.7641 38.8803C37.8601 38.8803 38.052 38.8803 38.148 38.8803C38.148 39.1708 38.148 39.5581 38.148 39.8486C38.148 40.0423 38.148 40.236 38.148 40.5265C38.148 40.8169 38.052 40.9138 37.7641 40.9138H37.8601ZM55.5184 48.6603C55.5184 48.1761 55.5184 47.7888 55.5184 47.3046C55.5184 47.111 55.5184 46.9173 55.5184 46.7236C55.5184 46.6268 55.5184 46.4331 55.5184 46.3363C55.5184 46.1427 55.5184 45.949 55.5184 45.6585C55.5184 45.0775 55.8383 44.6579 56.4781 44.3997C57.1499 44.206 57.7257 43.9155 58.3975 43.7219C58.1096 45.7553 57.1499 47.3046 55.6144 48.6603H55.5184ZM40.7392 27.2606C40.7392 26.9701 40.9311 26.8733 41.123 26.7765C44.8658 25.5177 48.8006 25.0335 52.7353 25.5176C54.5587 25.7113 56.4781 26.0018 58.2056 26.7765C58.5895 26.9701 58.5895 27.7448 58.5895 27.7448C58.5895 27.7448 58.5895 32.0053 58.5895 33.4578C58.5895 33.7483 58.5895 34.5229 58.0136 34.4261C57.7257 34.4261 57.4378 34.2324 57.1499 34.2324C56.4781 34.0388 55.8063 33.8451 55.1346 33.6515C54.8467 33.6515 54.7507 33.4578 54.7507 33.0705C54.9426 29.9719 52.6394 27.4543 49.6643 27.4543C46.6893 27.4543 44.386 29.9719 44.5779 32.9736C44.5779 33.2641 44.5779 33.4578 44.29 33.5546C43.4263 33.7483 42.5626 34.0388 41.6989 34.2324C41.315 34.2324 41.0271 34.4261 40.6432 34.5229V32.6831C40.6432 31.9085 40.6432 31.1338 40.6432 30.3592C40.6432 29.2941 40.6432 28.2289 40.6432 27.1638L40.7392 27.2606ZM52.7353 32.5863C52.6394 34.3293 51.7756 35.3944 50.3361 35.6849C48.5127 36.0722 46.7852 34.8134 46.7852 32.6831C46.7852 32.199 46.8812 31.618 47.1691 31.2307C47.9369 29.9719 49.1845 29.4877 50.528 29.875C51.6797 30.1655 52.4474 31.037 52.7353 32.2958C52.7353 32.2958 52.7353 32.4895 52.7353 32.5863ZM43.9062 46.2395C43.9062 46.4331 43.9062 46.6268 43.9062 46.8205V48.7571C42.2747 47.4015 41.411 45.949 41.123 43.9155C41.411 43.9155 41.6029 43.9155 41.7948 44.1092C41.7948 44.1092 41.9868 44.1092 42.0827 44.206C42.2747 44.206 42.4666 44.3997 42.7545 44.3997C43.2344 44.4965 43.6182 44.5934 43.9062 44.9807C44.0981 45.2712 44.0981 45.7553 44.0021 46.2395H43.9062ZM44.0981 42.5599C43.2344 42.2694 42.2747 41.8821 41.411 41.5916C41.123 41.4948 40.9311 41.3979 40.9311 41.0106C40.9311 39.8486 40.9311 38.5898 40.9311 37.4279C40.9311 37.1374 40.9311 36.9437 41.315 36.9437C42.5626 36.6532 43.7142 36.3627 44.9618 35.9754C45.2497 35.8786 45.4417 35.9754 45.6336 36.1691C47.2651 38.0088 49.4724 38.493 51.9676 37.5247C52.6394 37.1374 53.2152 36.75 53.5991 36.1691C53.791 35.8786 53.9829 35.8786 54.3668 35.9754H54.8467C55.9023 36.3627 57.054 36.6532 58.1096 36.9437C58.4935 36.9437 58.4935 37.1374 58.4935 37.4279C58.4935 38.5898 58.4935 39.8486 58.4935 41.0106C58.4935 41.3011 58.4935 41.4948 58.1096 41.5916C56.958 41.9789 55.9023 42.3662 54.7507 42.7536H54.5587C54.3668 42.9472 54.0789 42.9472 53.887 42.9472H45.2497C44.8659 42.9472 44.5779 42.9472 44.29 42.7536H43.9062L44.0981 42.5599ZM46.9772 53.5986C46.9772 53.405 46.9772 53.2113 46.9772 53.0177C46.9772 52.824 46.9772 52.824 47.0731 52.7272C47.1691 52.7272 47.3611 52.7272 47.553 52.7272C47.553 52.7272 47.649 52.7272 47.7449 52.7272C49.3764 53.0177 51.0079 53.0177 52.7353 52.7272C53.2152 52.7272 53.2152 52.9208 53.2152 53.1145C53.3111 54.7606 53.2152 56.2131 52.1595 57.5687C51.5837 58.2465 51.1998 59.0212 50.72 59.8926C50.528 60.28 50.2401 60.6673 50.0482 61.0546C49.7603 60.4736 49.3764 59.9895 49.0885 59.5053C48.3207 58.2465 47.553 57.0846 46.9772 55.8257C46.6893 55.2448 46.7852 54.3733 46.8812 53.5986H46.9772ZM46.4973 49.9191C46.4973 49.9191 46.4014 49.9191 46.3054 49.9191C46.1135 49.9191 46.1135 49.6286 46.1135 49.4349C46.1135 48.8539 46.1135 48.1761 46.1135 47.4983V46.7236C46.1135 46.0458 46.1135 45.6585 46.3054 45.5617C46.4973 45.368 46.7852 45.368 47.457 45.368H48.8966C50.2401 45.368 51.5837 45.368 52.8313 45.368C53.1192 45.368 53.4071 45.6585 53.4071 45.949C53.4071 47.111 53.4071 48.2729 53.4071 49.4349C53.4071 49.7254 53.4071 49.9191 53.0232 50.0159C52.5434 50.0159 52.1595 50.2096 51.6797 50.2096C49.9522 50.4032 48.2248 50.3064 46.5933 49.9191H46.4973ZM28.2632 75.3856C29.3188 72.1902 30.9503 67.0581 31.6221 64.5405C32.4858 61.8293 34.2133 60.1831 36.8044 59.6022L41.219 58.6338C41.219 58.6338 41.315 58.6338 41.411 58.6338C42.3706 58.4402 43.2344 58.2465 44.1941 57.956C44.6739 57.7624 44.9618 57.956 45.2497 58.4402C46.2094 60.0863 47.2651 61.8293 48.2248 63.4754L48.7046 64.25C49.5683 65.7025 50.72 65.7025 51.5837 64.25C51.7756 63.8627 51.9676 63.5722 52.2555 63.1849C53.1192 61.7324 53.9829 60.28 54.8467 58.7307C55.2305 58.0529 55.6144 57.6655 56.4781 57.956L63.196 59.4085C65.7872 59.9895 67.7065 61.3451 68.5703 64.0564C68.9541 65.412 69.53 67.3486 70.1058 69.3821C70.6816 71.4155 71.3534 73.6426 71.8332 75.2888H28.2632V75.3856Z" fill="#030303"/>
</svg>
