<svg width="16" height="16" viewBox="0 0 16 16" fill="none" xmlns="http://www.w3.org/2000/svg">
<path d="M4 2C4 1.46957 4.21071 0.960859 4.58579 0.585786C4.96086 0.210714 5.46957 0 6 0H10C10.5304 0 11.0391 0.210714 11.4142 0.585786C11.7893 0.960859 12 1.46957 12 2V4H14C14.5304 4 15.0391 4.21071 15.4142 4.58579C15.7893 4.96086 16 5.46957 16 6V10C16 10.5304 15.7893 11.0391 15.4142 11.4142C15.0391 11.7893 14.5304 12 14 12H12V14C12 14.5304 11.7893 15.0391 11.4142 15.4142C11.0391 15.7893 10.5304 16 10 16H6C5.46957 16 4.96086 15.7893 4.58579 15.4142C4.21071 15.0391 4 14.5304 4 14V12H2C1.46957 12 0.960859 11.7893 0.585786 11.4142C0.210714 11.0391 0 10.5304 0 10V6C0 5.46957 0.210714 4.96086 0.585786 4.58579C0.960859 4.21071 1.46957 4 2 4H4V2ZM10 2H6V5C6 5.26522 5.89464 5.51957 5.70711 5.70711C5.51957 5.89464 5.26522 6 5 6H2V10H5C5.26522 10 5.51957 10.1054 5.70711 10.2929C5.89464 10.4804 6 10.7348 6 11V14H10V11C10 10.7348 10.1054 10.4804 10.2929 10.2929C10.4804 10.1054 10.7348 10 11 10H14V6H11C10.7348 6 10.4804 5.89464 10.2929 5.70711C10.1054 5.51957 10 5.26522 10 5V2Z" fill="black"/>
</svg>