<svg width="22" height="22" viewBox="0 0 22 22" fill="none" xmlns="http://www.w3.org/2000/svg">
<path d="M19.2502 8.99999C19.2502 8.83584 19.2178 8.67329 19.155 8.52163C19.0922 8.36998 19.0001 8.23218 18.884 8.11611C18.768 8.00003 18.6302 7.90796 18.4785 7.84514C18.3269 7.78232 18.1643 7.74999 18.0002 7.74999C17.836 7.74999 17.6735 7.78232 17.5218 7.84514C17.3702 7.90796 17.2324 8.00003 17.1163 8.11611C17.0002 8.23218 16.9081 8.36998 16.8453 8.52163C16.7825 8.67329 16.7502 8.83584 16.7502 8.99999H19.2502ZM5.25016 8.99999C5.25016 8.66847 5.11847 8.35053 4.88405 8.11611C4.64963 7.88169 4.33169 7.74999 4.00016 7.74999C3.66864 7.74999 3.3507 7.88169 3.11628 8.11611C2.88186 8.35053 2.75016 8.66847 2.75016 8.99999H5.25016ZM19.1162 11.884C19.3506 12.1184 19.6686 12.2502 20.0002 12.2502C20.3317 12.2502 20.6497 12.1184 20.8842 11.884C21.1186 11.6495 21.2503 11.3316 21.2503 11C21.2503 10.6684 21.1186 10.3504 20.8842 10.116L19.1162 11.884ZM11.0002 1.99999L11.8842 1.11599C11.7681 0.999881 11.6303 0.907777 11.4786 0.844938C11.3269 0.782099 11.1643 0.749756 11.0002 0.749756C10.836 0.749756 10.6734 0.782099 10.5217 0.844938C10.3701 0.907777 10.2322 0.999881 10.1162 1.11599L11.0002 1.99999ZM1.11616 10.116C0.881713 10.3504 0.75 10.6684 0.75 11C0.75 11.3316 0.881713 11.6495 1.11616 11.884C1.35062 12.1184 1.6686 12.2502 2.00016 12.2502C2.33173 12.2502 2.64971 12.1184 2.88416 11.884L1.11616 10.116ZM6.00016 21.25H16.0002V18.75H6.00016V21.25ZM19.2502 18V8.99999H16.7502V18H19.2502ZM5.25016 18V8.99999H2.75016V18H5.25016ZM20.8842 10.116L11.8842 1.11599L10.1162 2.88399L19.1162 11.884L20.8842 10.116ZM10.1162 1.11599L1.11616 10.116L2.88416 11.884L11.8842 2.88399L10.1162 1.11599ZM16.0002 21.25C16.8621 21.25 17.6888 20.9076 18.2983 20.2981C18.9078 19.6886 19.2502 18.8619 19.2502 18H16.7502C16.7502 18.1989 16.6711 18.3897 16.5305 18.5303C16.3898 18.671 16.1991 18.75 16.0002 18.75V21.25ZM6.00016 18.75C5.80125 18.75 5.61049 18.671 5.46983 18.5303C5.32918 18.3897 5.25016 18.1989 5.25016 18H2.75016C2.75016 18.8619 3.09257 19.6886 3.70207 20.2981C4.31156 20.9076 5.13821 21.25 6.00016 21.25V18.75Z" fill="#F2908D"/>
</svg>

