<svg width="100" height="100" viewBox="0 0 100 100" fill="none" xmlns="http://www.w3.org/2000/svg">
<circle cx="50" cy="50" r="50" fill="#F1F1F1"/>
<path fill-rule="evenodd" clip-rule="evenodd" d="M35.9275 72.0892C33.5862 69.4759 34.1281 66.2573 37.164 64.5534C37.5042 64.3625 37.6335 64.1821 37.6305 63.8075C37.6161 62.0046 37.6099 60.2013 37.6334 58.3986C37.6398 57.9106 37.5151 57.793 37.0196 57.8757C33.922 58.3924 31.8684 60.0463 30.9308 63.115C30.0143 66.1145 27.9245 72.7272 26.9268 75.7017C26.5687 76.7693 25.7929 77.2459 24.9539 76.9482C24.1003 76.6453 23.7893 75.8297 24.1444 74.7534C24.5683 73.4689 25.1559 71.5927 25.7794 69.6017C26.7075 66.6384 27.7151 63.4208 28.3813 61.5212C29.5522 58.1821 31.8871 56.0626 35.3556 55.2598C37.9682 54.655 40.5866 54.0743 43.2093 53.5152C43.7446 53.4011 44.0563 53.218 43.9495 52.6241C43.9381 52.5606 43.9401 52.4921 43.9491 52.4278C44.2 50.6362 43.7348 49.3749 42.107 48.1842C39.2528 46.0963 37.8644 42.9784 37.6752 39.4455C37.5457 37.0269 37.5971 34.5945 37.6644 32.1709C37.7063 30.6612 38.3286 29.3246 39.2807 28.1407C44.7972 21.2811 55.5763 21.2863 61.0874 28.1571C61.9235 29.1996 62.5611 30.3597 62.6231 31.7044C62.6388 32.0462 62.6558 32.3883 62.6727 32.7305V32.7306C62.8145 35.5951 62.9568 38.4689 62.4135 41.3069C61.773 44.652 59.9117 47.2468 57.1008 49.1365C56.5617 49.4989 56.3402 49.8586 56.404 50.4821C56.438 50.8139 56.3987 51.1785 56.3599 51.5382C56.2893 52.1931 56.2204 52.832 56.5983 53.2284C56.9704 53.6188 57.6603 53.7092 58.3469 53.7991C58.6365 53.837 58.9255 53.8748 59.1898 53.9351C59.8839 54.0933 60.579 54.2466 61.2742 54.4C62.5594 54.6836 63.8446 54.9671 65.1224 55.2809C68.3724 56.0791 70.6868 58.0273 71.8276 61.1804C72.5263 63.1116 73.4344 66.2017 74.2922 69.1204C74.9217 71.2622 75.524 73.3118 75.9966 74.7434C76.2989 75.6591 75.9118 76.466 75.1066 76.739C74.321 77.0052 73.5086 76.5731 73.1978 75.6534C72.5934 73.8651 71.7414 70.9756 70.9317 68.2292L70.9316 68.2288L70.9312 68.2277C70.3113 66.1252 69.7161 64.1066 69.2757 62.7302C68.3227 59.7523 66.1595 58.3426 63.2221 57.86C62.9134 57.8093 62.7007 57.8287 62.7333 58.222C62.7468 58.3848 62.7527 58.5519 62.7322 58.7132C62.5459 60.18 62.7522 61.199 64.4277 61.922C66.4454 62.7926 67.3533 64.7615 67.4517 66.9709C67.5137 68.3619 67.4934 69.7573 67.4731 71.1511V71.1513L67.4692 71.4191L67.4654 71.6908C67.4501 72.8194 66.8871 73.3499 65.75 73.3741L65.6988 73.3752C65.2571 73.3846 64.8139 73.3941 64.3735 73.3679C63.6348 73.324 63.1287 72.9292 62.9784 72.2082C62.8185 71.4408 63.1157 70.7552 63.8732 70.5718C64.5469 70.4087 64.5372 70.0469 64.5241 69.5596L64.5233 69.5259C64.5133 69.1452 64.516 68.7641 64.5187 68.383C64.5213 68.01 64.5239 67.6369 64.5147 67.2641C64.4668 65.3233 63.0997 63.9214 61.2643 63.9127C59.4021 63.9039 58.0517 65.2661 57.9959 67.2203C57.981 67.7444 57.9848 68.2694 57.9946 68.7938C57.997 68.9252 57.9913 69.0586 57.9857 69.1913L57.9856 69.1915C57.9571 69.8593 57.9295 70.5064 58.9472 70.7655C59.4677 70.898 59.6537 71.5874 59.5113 72.1962C59.3518 72.8786 58.9051 73.2945 58.2195 73.3569C57.602 73.4132 56.9679 73.4262 56.3542 73.3512C55.5377 73.2516 55.0535 72.738 55.05 71.8941C55.0481 71.4434 55.0418 70.9923 55.0356 70.541V70.541V70.541V70.5409C55.0163 69.1544 54.997 67.7669 55.1055 66.39C55.3029 63.8866 56.8198 62.2827 59.0788 61.3691C59.6242 61.1486 59.8275 60.8979 59.7926 60.3189C59.7714 59.9675 59.8001 59.5872 59.8286 59.2097V59.2096C59.8846 58.467 59.9398 57.735 59.6132 57.2543C59.3008 56.7942 58.6192 56.7176 57.9149 56.6385C57.4947 56.5912 57.0663 56.5431 56.7035 56.412C55.816 56.0914 55.4457 56.4317 55.0341 57.1628C54.1674 58.7024 53.2479 60.2125 52.3285 61.7223C52.1078 62.0846 51.8871 62.447 51.6672 62.8097C50.7712 64.2876 49.5741 64.274 48.67 62.778L48.1899 61.9843L48.1899 61.9843L48.1899 61.9842L48.1899 61.9842C47.1477 60.2616 46.1055 58.5388 45.098 56.7961C44.8132 56.3034 44.5295 56.1898 44 56.3345C43.0545 56.5928 42.0964 56.817 41.1317 56.9881C40.6638 57.0711 40.5669 57.2802 40.5705 57.7063L40.5745 58.155V58.1551V58.1552V58.1552C40.5909 60.0053 40.6073 61.8561 40.5585 63.7049C40.5438 64.2634 40.8413 64.4209 41.1926 64.6069L41.193 64.6072C41.2322 64.6279 41.272 64.649 41.3122 64.671C43.2678 65.745 44.1794 67.9343 43.5585 70.0239C42.9286 72.1437 40.9969 73.5095 38.805 73.3629C37.7236 73.2906 36.7797 72.8713 35.9275 72.0892ZM41.0443 41.6012L41.0442 41.6011C40.9439 41.2905 40.8519 41.0056 40.8037 40.7134C40.7859 40.6052 40.7667 40.4965 40.7475 40.3874C40.6523 39.8462 40.5555 39.2964 40.6083 38.7662C40.6564 38.2816 41.0415 38.1558 41.432 38.0282C41.6402 37.9602 41.8499 37.8917 42.0111 37.7681C42.6397 37.2859 43.2039 36.7423 43.7411 36.1714C44.0558 35.837 44.3134 35.7911 44.7593 35.9536C48.3716 37.2704 52.002 37.2663 55.6137 35.9524C56.0655 35.7881 56.3194 35.848 56.6279 36.1806C57.4312 37.0464 58.2616 37.8988 59.4209 38.285C59.8514 38.4284 59.8147 38.7183 59.7792 38.9979C59.7719 39.0559 59.7646 39.1134 59.7616 39.1692C59.5172 43.6263 56.2569 47.3528 51.9157 48.1527C47.5883 48.95 43.2867 46.6809 41.4363 42.6241C41.3551 42.446 41.2785 42.2659 41.1737 42.013C41.1309 41.8694 41.0869 41.733 41.0443 41.6013L41.0443 41.6012L41.0443 41.6012ZM44.5816 32.6807C46.0968 33.4314 47.7071 33.8211 49.4719 33.9725C51.5857 34.0461 53.5296 33.6935 55.3846 32.8635C56.687 32.2808 56.9258 32.3482 57.9767 33.3484C58.1531 33.5163 58.319 33.6973 58.4845 33.8777L58.4846 33.8779C58.8503 34.2767 59.2136 34.673 59.682 34.9195C60.2106 32.193 59.3308 30.0871 57.2046 28.3856C52.6821 24.7666 45.9195 25.2712 41.9724 29.5073C40.4631 31.1271 40.4814 32.9769 40.6601 35.2368C40.9143 34.9637 41.1501 34.709 41.3737 34.4674L41.3738 34.4673C41.8535 33.949 42.2775 33.4909 42.7093 33.0404C43.242 32.4847 43.8715 32.329 44.5816 32.6807ZM52.9474 50.9408C53.4536 50.8467 53.4556 51.1031 53.4575 51.3525C53.4578 51.3941 53.4582 51.4355 53.4608 51.475C53.5675 53.0607 53.4393 54.549 52.402 55.9063C51.8388 56.6432 51.3776 57.4581 50.8868 58.3254L50.8868 58.3254L50.8867 58.3255C50.6601 58.7259 50.4272 59.1374 50.175 59.5576C49.8484 59.0058 49.5162 58.4686 49.1881 57.9381C48.3937 56.6534 47.6234 55.4076 47.0136 54.0877C46.7193 53.4507 46.7978 52.6243 46.8735 51.8277L46.8735 51.8276C46.8942 51.6095 46.9147 51.3937 46.9273 51.1846C46.9536 50.7482 47.2669 50.8564 47.5215 50.9442C47.5882 50.9672 47.6508 50.9888 47.7032 50.9989C49.428 51.3306 51.1431 51.3116 52.9474 50.9408ZM38.1881 70.1259C38.9374 70.6344 39.675 70.5071 40.3869 69.8417C40.8939 69.121 40.9334 68.4327 40.4827 67.7674C40.0746 67.165 39.456 66.9534 38.7585 67.0994C38.0978 67.2376 37.6655 67.6759 37.4898 68.3324C37.2863 69.0931 37.5727 69.7083 38.1881 70.1259Z" fill="#040404"/>
<rect x="25.0444" y="74.3035" width="50.4033" height="2.70018" rx="1.35009" fill="#040404"/>
</svg>
