<svg width="738" height="150" viewBox="0 0 738 150" fill="none" xmlns="http://www.w3.org/2000/svg">
<g clip-path="url(#clip0_447_18)">
<path d="M219.532 35.3181C221.602 35.3181 223.273 36.0344 224.546 37.4669C225.82 38.8198 226.456 40.5308 226.456 42.6V85.8138C226.456 92.4192 225.024 98.2685 222.159 103.362C219.373 108.455 215.514 112.434 210.579 115.299C205.645 118.164 199.915 119.597 193.389 119.597C186.864 119.597 181.094 118.164 176.08 115.299C171.146 112.434 167.246 108.455 164.381 103.362C161.596 98.2685 160.203 92.4192 160.203 85.8138V42.6C160.203 40.5308 160.919 38.8198 162.352 37.4669C163.784 36.0344 165.615 35.3181 167.843 35.3181C169.674 35.3181 171.305 36.0344 172.737 37.4669C174.25 38.8198 175.006 40.5308 175.006 42.6V85.8138C175.006 89.7929 175.841 93.2548 177.512 96.1994C179.263 99.0644 181.531 101.293 184.317 102.884C187.182 104.476 190.206 105.272 193.389 105.272C196.811 105.272 199.995 104.476 202.939 102.884C205.884 101.293 208.271 99.0644 210.102 96.1994C211.932 93.2548 212.847 89.7929 212.847 85.8138V42.6C212.847 40.5308 213.444 38.8198 214.638 37.4669C215.832 36.0344 217.463 35.3181 219.532 35.3181ZM258.697 111.718C258.697 113.787 257.981 115.538 256.548 116.971C255.195 118.324 253.484 119 251.415 119C249.425 119 247.754 118.324 246.401 116.971C245.048 115.538 244.372 113.787 244.372 111.718V37.9444C244.372 35.8752 245.048 34.1642 246.401 32.8113C247.834 31.3788 249.585 30.6625 251.654 30.6625C253.723 30.6625 255.394 31.3788 256.667 32.8113C258.02 34.1642 258.697 35.8752 258.697 37.9444V111.718ZM302.002 53.9406C306.538 53.9406 310.478 54.4181 313.82 55.3731C317.242 56.3281 319.868 57.681 321.699 59.4319C323.609 61.1031 324.564 63.1325 324.564 65.52C324.564 67.1117 324.086 68.6238 323.131 70.0563C322.176 71.4092 320.784 72.0856 318.953 72.0856C317.68 72.0856 316.605 71.9265 315.73 71.6081C314.934 71.2102 314.218 70.7327 313.581 70.1756C312.945 69.6185 312.189 69.1013 311.313 68.6238C310.517 68.1463 309.284 67.7881 307.613 67.5494C306.021 67.231 304.827 67.0719 304.031 67.0719C299.973 67.0719 296.511 67.9473 293.646 69.6981C290.86 71.449 288.712 73.8365 287.199 76.8606C285.687 79.8052 284.931 83.2273 284.931 87.1269C284.931 90.9469 285.687 94.369 287.199 97.3931C288.791 100.338 290.94 102.685 293.646 104.436C296.431 106.187 299.614 107.063 303.196 107.063C305.185 107.063 306.896 106.943 308.329 106.704C309.761 106.466 310.955 106.108 311.91 105.63C313.024 104.993 314.019 104.317 314.894 103.601C315.77 102.884 317.083 102.526 318.834 102.526C320.903 102.526 322.495 103.203 323.609 104.556C324.723 105.829 325.28 107.421 325.28 109.331C325.28 111.32 324.166 113.151 321.938 114.822C319.709 116.414 316.765 117.727 313.104 118.761C309.523 119.716 305.623 120.194 301.405 120.194C295.118 120.194 289.667 118.761 285.051 115.896C280.435 112.952 276.854 108.973 274.307 103.959C271.84 98.945 270.606 93.3344 270.606 87.1269C270.606 80.601 271.919 74.871 274.546 69.9369C277.252 64.9231 280.952 61.0235 285.648 58.2381C290.423 55.3731 295.874 53.9406 302.002 53.9406ZM365.109 120.194C358.345 120.194 352.456 118.801 347.442 116.016C342.508 113.151 338.688 109.291 335.982 104.436C333.356 99.5817 332.042 94.0904 332.042 87.9625C332.042 80.8 333.475 74.7119 336.34 69.6981C339.285 64.6048 343.105 60.7052 347.8 57.9994C352.495 55.2935 357.469 53.9406 362.722 53.9406C366.781 53.9406 370.601 54.7763 374.182 56.4475C377.843 58.1188 381.066 60.4267 383.851 63.3713C386.637 66.2363 388.825 69.5788 390.417 73.3988C392.088 77.2188 392.924 81.2775 392.924 85.575C392.844 87.485 392.088 89.0369 390.656 90.2306C389.223 91.4244 387.552 92.0213 385.642 92.0213H340.041L336.459 80.0838H380.27L377.644 82.4713V79.2481C377.485 76.9402 376.649 74.871 375.137 73.0406C373.704 71.2102 371.874 69.7777 369.646 68.7431C367.497 67.629 365.189 67.0719 362.722 67.0719C360.334 67.0719 358.106 67.3902 356.037 68.0269C353.968 68.6635 352.177 69.7379 350.665 71.25C349.153 72.7621 347.959 74.7915 347.084 77.3381C346.208 79.8848 345.771 83.1079 345.771 87.0075C345.771 91.305 346.646 94.9658 348.397 97.99C350.227 100.935 352.535 103.203 355.321 104.794C358.186 106.306 361.21 107.063 364.393 107.063C367.338 107.063 369.685 106.824 371.436 106.346C373.187 105.869 374.58 105.312 375.614 104.675C376.729 103.959 377.723 103.362 378.599 102.884C380.031 102.168 381.384 101.81 382.657 101.81C384.408 101.81 385.841 102.407 386.955 103.601C388.149 104.794 388.746 106.187 388.746 107.779C388.746 109.928 387.631 111.877 385.403 113.628C383.334 115.379 380.429 116.931 376.689 118.284C372.948 119.557 369.089 120.194 365.109 120.194ZM412.033 119C409.964 119 408.253 118.324 406.9 116.971C405.547 115.538 404.871 113.787 404.871 111.718V62.4163C404.871 60.3471 405.547 58.636 406.9 57.2831C408.253 55.8506 409.964 55.1344 412.033 55.1344C414.102 55.1344 415.813 55.8506 417.166 57.2831C418.519 58.636 419.196 60.3471 419.196 62.4163V73.6375L418.36 65.6394C419.235 63.7294 420.35 62.0581 421.702 60.6256C423.135 59.1135 424.727 57.88 426.477 56.925C428.228 55.8904 430.098 55.1344 432.088 54.6569C434.078 54.1794 436.067 53.9406 438.057 53.9406C440.444 53.9406 442.434 54.6171 444.026 55.97C445.697 57.3229 446.532 58.9146 446.532 60.745C446.532 63.3713 445.856 65.2813 444.503 66.475C443.15 67.5892 441.678 68.1463 440.086 68.1463C438.574 68.1463 437.181 67.8677 435.908 67.3106C434.714 66.7535 433.322 66.475 431.73 66.475C430.297 66.475 428.825 66.8331 427.313 67.5494C425.881 68.186 424.528 69.2206 423.254 70.6531C422.061 72.0856 421.066 73.8763 420.27 76.025C419.554 78.0942 419.196 80.5613 419.196 83.4263V111.718C419.196 113.787 418.519 115.538 417.166 116.971C415.813 118.324 414.102 119 412.033 119ZM490.772 53.9406C496.661 53.9406 501.118 55.1742 504.142 57.6413C507.246 60.1083 509.355 63.411 510.469 67.5494C511.663 71.6081 512.26 76.1444 512.26 81.1581V111.718C512.26 113.787 511.583 115.538 510.23 116.971C508.877 118.324 507.166 119 505.097 119C503.028 119 501.317 118.324 499.964 116.971C498.611 115.538 497.935 113.787 497.935 111.718V81.1581C497.935 78.5319 497.576 76.1842 496.86 74.115C496.224 71.9663 495.03 70.2552 493.279 68.9819C491.528 67.7085 489.021 67.0719 485.758 67.0719C482.575 67.0719 479.869 67.7085 477.641 68.9819C475.492 70.2552 473.821 71.9663 472.627 74.115C471.513 76.1842 470.956 78.5319 470.956 81.1581V111.718C470.956 113.787 470.279 115.538 468.926 116.971C467.574 118.324 465.862 119 463.793 119C461.724 119 460.013 118.324 458.66 116.971C457.307 115.538 456.631 113.787 456.631 111.718V62.4163C456.631 60.3471 457.307 58.636 458.66 57.2831C460.013 55.8506 461.724 55.1344 463.793 55.1344C465.862 55.1344 467.574 55.8506 468.926 57.2831C470.279 58.636 470.956 60.3471 470.956 62.4163V67.5494L469.165 67.1913C469.881 65.8383 470.916 64.4058 472.269 62.8938C473.622 61.3021 475.214 59.8298 477.044 58.4769C478.874 57.124 480.944 56.0496 483.251 55.2538C485.559 54.3783 488.066 53.9406 490.772 53.9406ZM589.102 87.1269C589.102 93.6527 587.629 99.4225 584.685 104.436C581.82 109.37 577.92 113.23 572.986 116.016C568.131 118.801 562.68 120.194 556.632 120.194C550.583 120.194 545.092 118.801 540.158 116.016C535.303 113.23 531.404 109.37 528.459 104.436C525.594 99.4225 524.162 93.6527 524.162 87.1269C524.162 80.601 525.594 74.871 528.459 69.9369C531.404 64.9231 535.303 61.0235 540.158 58.2381C545.092 55.3731 550.583 53.9406 556.632 53.9406C562.68 53.9406 568.131 55.3731 572.986 58.2381C577.92 61.0235 581.82 64.9231 584.685 69.9369C587.629 74.871 589.102 80.601 589.102 87.1269ZM574.777 87.1269C574.777 83.0681 573.941 79.5665 572.27 76.6219C570.678 73.5977 568.49 71.25 565.704 69.5788C562.998 67.9075 559.974 67.0719 556.632 67.0719C553.289 67.0719 550.225 67.9075 547.44 69.5788C544.734 71.25 542.545 73.5977 540.874 76.6219C539.282 79.5665 538.487 83.0681 538.487 87.1269C538.487 91.106 539.282 94.6077 540.874 97.6319C542.545 100.576 544.734 102.884 547.44 104.556C550.225 106.227 553.289 107.063 556.632 107.063C559.974 107.063 562.998 106.227 565.704 104.556C568.49 102.884 570.678 100.576 572.27 97.6319C573.941 94.6077 574.777 91.106 574.777 87.1269ZM597.369 109.092C596.573 107.978 596.215 106.545 596.295 104.794C596.374 103.044 597.409 101.531 599.399 100.258C600.672 99.4623 602.025 99.144 603.457 99.3031C604.89 99.3827 606.283 100.099 607.635 101.452C609.943 103.76 612.371 105.55 614.917 106.824C617.464 108.097 620.647 108.734 624.467 108.734C625.661 108.654 626.974 108.495 628.407 108.256C629.839 107.938 631.073 107.301 632.107 106.346C633.222 105.312 633.779 103.76 633.779 101.691C633.779 99.9398 633.182 98.5471 631.988 97.5125C630.794 96.4779 629.203 95.6025 627.213 94.8863C625.303 94.17 623.154 93.4935 620.767 92.8569C618.3 92.1406 615.753 91.3448 613.127 90.4694C610.58 89.594 608.232 88.4798 606.084 87.1269C603.935 85.6944 602.184 83.8242 600.831 81.5163C599.478 79.2083 598.802 76.3035 598.802 72.8019C598.802 68.8227 599.916 65.4404 602.144 62.655C604.373 59.8696 607.238 57.7208 610.739 56.2088C614.32 54.6967 618.061 53.9406 621.96 53.9406C624.428 53.9406 627.014 54.259 629.72 54.8956C632.426 55.4527 635.012 56.4077 637.479 57.7606C639.946 59.034 642.015 60.745 643.687 62.8938C644.562 64.0875 645.079 65.52 645.239 67.1913C645.398 68.8625 644.642 70.3746 642.97 71.7275C641.777 72.6825 640.384 73.1202 638.792 73.0406C637.201 72.8815 635.888 72.3244 634.853 71.3694C633.5 69.6185 631.67 68.2258 629.362 67.1913C627.133 66.1567 624.547 65.6394 621.602 65.6394C620.409 65.6394 619.095 65.7985 617.663 66.1169C616.31 66.3556 615.116 66.9525 614.082 67.9075C613.047 68.7829 612.53 70.2154 612.53 72.205C612.53 74.0354 613.127 75.5077 614.32 76.6219C615.514 77.6565 617.106 78.5319 619.095 79.2481C621.165 79.8848 623.353 80.5215 625.661 81.1581C628.049 81.7948 630.476 82.5508 632.943 83.4263C635.41 84.3017 637.678 85.4556 639.747 86.8881C641.817 88.3206 643.488 90.1908 644.761 92.4988C646.034 94.7271 646.671 97.5921 646.671 101.094C646.671 105.153 645.477 108.614 643.09 111.479C640.702 114.344 637.718 116.533 634.137 118.045C630.555 119.477 626.895 120.194 623.154 120.194C618.459 120.194 613.763 119.398 609.068 117.806C604.373 116.135 600.473 113.23 597.369 109.092ZM672.148 111.718C672.148 113.787 671.472 115.538 670.119 116.971C668.766 118.324 667.055 119 664.986 119C662.917 119 661.206 118.324 659.853 116.971C658.5 115.538 657.823 113.787 657.823 111.718V62.4163C657.823 60.3471 658.5 58.636 659.853 57.2831C661.206 55.8506 662.917 55.1344 664.986 55.1344C667.055 55.1344 668.766 55.8506 670.119 57.2831C671.472 58.636 672.148 60.3471 672.148 62.4163V111.718ZM664.866 47.375C662.161 47.375 660.251 46.9373 659.136 46.0619C658.022 45.1865 657.465 43.6346 657.465 41.4063V39.1381C657.465 36.8302 658.062 35.2783 659.256 34.4825C660.529 33.6071 662.439 33.1694 664.986 33.1694C667.771 33.1694 669.721 33.6071 670.835 34.4825C671.949 35.3579 672.506 36.9098 672.506 39.1381V41.4063C672.506 43.7142 671.91 45.3058 670.716 46.1813C669.522 46.9771 667.572 47.375 664.866 47.375ZM683.17 109.092C682.374 107.978 682.016 106.545 682.096 104.794C682.175 103.044 683.21 101.531 685.199 100.258C686.473 99.4623 687.826 99.144 689.258 99.3031C690.691 99.3827 692.083 100.099 693.436 101.452C695.744 103.76 698.171 105.55 700.718 106.824C703.265 108.097 706.448 108.734 710.268 108.734C711.462 108.654 712.775 108.495 714.208 108.256C715.64 107.938 716.874 107.301 717.908 106.346C719.022 105.312 719.579 103.76 719.579 101.691C719.579 99.9398 718.983 98.5471 717.789 97.5125C716.595 96.4779 715.003 95.6025 713.014 94.8863C711.104 94.17 708.955 93.4935 706.568 92.8569C704.1 92.1406 701.554 91.3448 698.928 90.4694C696.381 89.594 694.033 88.4798 691.884 87.1269C689.736 85.6944 687.985 83.8242 686.632 81.5163C685.279 79.2083 684.603 76.3035 684.603 72.8019C684.603 68.8227 685.717 65.4404 687.945 62.655C690.173 59.8696 693.038 57.7208 696.54 56.2088C700.121 54.6967 703.862 53.9406 707.761 53.9406C710.228 53.9406 712.815 54.259 715.521 54.8956C718.226 55.4527 720.813 56.4077 723.28 57.7606C725.747 59.034 727.816 60.745 729.488 62.8938C730.363 64.0875 730.88 65.52 731.039 67.1913C731.199 68.8625 730.443 70.3746 728.771 71.7275C727.578 72.6825 726.185 73.1202 724.593 73.0406C723.001 72.8815 721.688 72.3244 720.654 71.3694C719.301 69.6185 717.47 68.2258 715.163 67.1913C712.934 66.1567 710.348 65.6394 707.403 65.6394C706.209 65.6394 704.896 65.7985 703.464 66.1169C702.111 66.3556 700.917 66.9525 699.883 67.9075C698.848 68.7829 698.331 70.2154 698.331 72.205C698.331 74.0354 698.928 75.5077 700.121 76.6219C701.315 77.6565 702.907 78.5319 704.896 79.2481C706.965 79.8848 709.154 80.5215 711.462 81.1581C713.849 81.7948 716.277 82.5508 718.744 83.4263C721.211 84.3017 723.479 85.4556 725.548 86.8881C727.617 88.3206 729.289 90.1908 730.562 92.4988C731.835 94.7271 732.472 97.5921 732.472 101.094C732.472 105.153 731.278 108.614 728.891 111.479C726.503 114.344 723.519 116.533 719.938 118.045C716.356 119.477 712.695 120.194 708.955 120.194C704.26 120.194 699.564 119.398 694.869 117.806C690.173 116.135 686.274 113.23 683.17 109.092Z" fill="#0E1A30"/>
<path d="M126.252 63.438V101.563C126.252 110.782 119.377 118.594 110.158 119.375C109.689 119.375 109.377 119.375 108.908 119.375C104.064 119.375 99.8457 117.5 96.5644 114.375C93.4394 111.25 91.4082 106.875 91.4082 102.188V65.6255C91.4082 65.4692 91.4082 65.313 91.4082 65.1567C91.0957 62.3442 88.7519 60.0005 85.9394 60.0005C84.5332 60.0005 83.2832 60.6255 82.3457 61.563C82.0332 61.8755 81.7207 62.3442 81.4082 62.813V84.8442C81.4082 87.188 81.2519 89.3755 80.7832 91.563C80.1582 95.0005 78.9082 98.2817 77.1895 101.407C75.627 104.375 73.5957 107.032 71.2519 109.375C67.1894 113.438 62.1895 116.407 56.5645 118.125C53.4395 119.063 50.1582 119.532 46.7207 119.532H35.9395C26.4082 119.532 17.6582 115.625 11.4082 109.375C9.06445 107.032 7.0332 104.375 5.4707 101.407C2.81445 96.563 1.25195 90.938 1.25195 84.8442V46.2505C1.25195 41.4067 3.12695 37.188 6.25195 34.063C9.37695 30.938 13.752 29.063 18.4395 29.063C27.9707 29.063 35.7832 36.8755 35.7832 46.4067V83.2817C35.7832 83.2817 35.7832 83.2817 35.7832 83.438C35.7832 84.8442 36.4082 86.0942 37.3457 87.0317C38.2832 87.9692 39.6895 88.5942 41.0957 88.5942C42.5019 88.5942 44.8457 87.5005 45.7832 85.7817C46.0957 85.1567 46.4082 84.2192 46.4082 83.438C46.4082 83.438 46.4082 83.438 46.4082 83.2817V62.813C46.4082 57.3442 47.6582 52.0317 50.1582 47.188C51.0957 45.1567 52.3457 43.2817 53.752 41.563C54.0645 41.2505 54.377 40.938 54.5332 40.6255C54.5332 40.6255 54.5332 40.6255 54.6895 40.4692C54.6895 40.4692 54.8457 40.313 55.002 40.1567C55.3145 39.8442 55.6269 39.5317 55.9394 39.2192C60.0019 35.1567 65.002 32.188 70.627 30.4692C73.7519 29.5317 77.0332 29.063 80.4707 29.063H91.2519C100.783 29.063 109.533 32.9692 115.783 39.2192C118.127 41.563 120.158 44.2192 121.721 47.188C124.377 52.0317 125.939 57.6567 125.939 63.7505L126.252 63.438Z" fill="#FF9794"/>
<g opacity="0.5">
<path opacity="0.9" d="M36.25 46.094V46.8752H1.5625V46.094C1.5625 41.2502 3.4375 37.0315 6.5625 33.9065C9.6875 30.7815 14.0625 28.9065 18.75 28.9065C28.2812 28.9065 36.0938 36.719 36.0938 46.2502L36.25 46.094Z" fill="white"/>
<path opacity="0.9" d="M122.186 46.875H50.623C51.5605 44.8438 52.8105 42.9687 54.2168 41.25C54.5293 40.9375 54.8418 40.625 54.998 40.3125C54.998 40.3125 54.998 40.3125 55.1543 40.1562C55.1543 40.1562 55.3105 40 55.4668 39.8437C55.7793 39.5312 56.0918 39.2187 56.4043 38.9062C60.4668 34.8437 65.4668 31.875 71.0918 30.1563C74.2168 29.2188 77.498 28.75 80.9355 28.75H91.7168C101.248 28.75 109.998 32.6562 116.248 38.9062C118.592 41.25 120.623 43.9063 122.186 46.875Z" fill="white"/>
<path opacity="0.8" d="M36.25 46.8755H1.5625V65.0005H36.25V46.8755Z" fill="white"/>
<path opacity="0.8" d="M126.252 63.438V65.0005H91.5645C91.252 62.188 88.9082 59.8442 86.0957 59.8442C84.6895 59.8442 83.4395 60.4692 82.502 61.4067C82.1895 61.7192 81.877 62.188 81.5645 62.6567V65.0005H46.877V62.5005C46.877 57.0317 48.127 51.7192 50.627 46.8755H122.189C124.846 51.7192 126.408 57.3442 126.408 63.438H126.252Z" fill="white"/>
<path opacity="0.6" d="M36.25 82.9687C36.25 82.9687 36.25 82.9688 36.25 83.125H1.5625V65H36.25V82.9687Z" fill="white"/>
<path opacity="0.6" d="M46.877 65H81.5645V83.125H46.877C46.877 83.125 46.877 83.125 46.877 82.9687V65Z" fill="white"/>
<path opacity="0.6" d="M126.25 65V83.125H91.5625V65.4687C91.5625 65.3125 91.5625 65.1563 91.5625 65H126.25Z" fill="white"/>
<path opacity="0.4" d="M46.875 83.1255H81.5625V84.688C81.5625 87.0317 81.4062 89.2192 80.9375 91.4067C80.3125 94.8442 79.0625 98.1255 77.3437 101.25H5.78125C3.125 96.4067 1.5625 90.7817 1.5625 84.688V83.1255H36.25C36.25 84.5317 36.875 85.7817 37.8125 86.7192C38.75 87.6567 40.1562 88.2817 41.5625 88.2817C42.9687 88.2817 45.3125 87.188 46.25 85.4692C46.5625 84.8442 46.875 83.9067 46.875 83.1255Z" fill="white"/>
<path opacity="0.4" d="M126.406 83.1255H91.7188V101.25H126.406V83.1255Z" fill="white"/>
<path opacity="0.2" d="M5.78125 101.25H77.5C75.9375 104.219 73.9062 106.875 71.5625 109.219C67.5 113.282 62.5 116.25 56.875 117.969C53.75 118.907 50.4687 119.375 47.0312 119.375H36.25C26.7187 119.375 17.9687 115.469 11.7187 109.219C9.375 106.875 7.34375 104.219 5.78125 101.25Z" fill="white"/>
<path opacity="0.2" d="M126.25 101.25V101.563C126.25 110.782 119.375 118.594 110.156 119.375C109.687 119.375 109.375 119.375 108.906 119.375C104.062 119.375 99.8437 117.5 96.5625 114.375C93.4375 111.25 91.4062 106.875 91.4062 102.188V101.407H126.094L126.25 101.25Z" fill="white"/>
</g>
</g>
<defs>
<clipPath id="clip0_447_18">
<rect width="737.188" height="150" fill="white"/>
</clipPath>
</defs>
</svg>
